<svg version="1.2" xmlns="http://www.w3.org/2000/svg" viewBox="0 0 246 180" width="246" height="180">
	<title>logo_salem_kazakhstan-svg</title>
	<defs>
		<linearGradient id="g1" x2="1" gradientUnits="userSpaceOnUse" gradientTransform="matrix(-92.077,185.265,-163.178,-81.1,203.583,9.302)">
			<stop offset="0" stop-color="#ba3088"/>
			<stop offset="1" stop-color="#475598"/>
		</linearGradient>
	</defs>
	<style>
		.s0 { fill: url(#g1) } 
	</style>
	<path id="Layer" class="s0" d="m190.4 54.2c-0.3 0.1-0.4 0.4-0.3 0.7q0 0.1 0 0.1l0.6 2.9 1.9 9 2.4 7.7q1.4 4.5 3.6 8.7l3.1 5.7 4.8 6.6q0.2 0.3 0.3 0.6c0.3 1 0.1 2-0.7 2.6l-0.1 0.1q-0.1 0.1-0.3 0.2l-0.9 0.6q-1 0.6-1.9 1.3c-1.2 1-2.8 2.3-2.9 2.4l-6.3 6.3-2.6 2.7c-1.3 1.4-2.4 3.1-3.1 5l-0.5 1.2q-0.6 1.4-0.6 3v1.1q0 0.9-0.4 1.7c-0.4 0.8-1.1 1.5-1.9 1.8l-0.7 0.3q-0.5 0.2-1.2 0.3h-0.3c-0.9 0.1-1.7-0.2-2.4-0.7q-0.4-0.4-0.7-0.9l-1.4-2.4-3-4.9-5.7-10.9q-0.2-0.2-0.4-0.3c-0.4-0.3-1-0.1-1.2 0.4l-0.9 1.8-2.1 3.6-4.1 6.4q-0.1 0.1-0.2 0.1c-0.2 0.1-0.3 0.2-0.3 0.4l0.4 4.5 0.5 2.4c0.2 1.2 0.6 3.6 0.6 4 0.1 0.3 0.2 4.6 0.2 6.7v2.4q-0.1 3.5 0.3 7.1l0.2 1.9 0.6 6.7 0.4 1.7 0.1 1q0.1 1 0 2-0.1 1.6 0.2 3.1l0.7 2.9 0.5 1.7q0.1 0.4 0 0.8c-0.2 0.4-0.6 0.7-1.1 0.7h-5.2q-0.3 0-0.6-0.1c-0.5-0.2-0.9-0.8-0.9-1.4v-0.4q0-1.3-0.2-2.6l-0.5-3.1-0.5-4.6q-0.1-1.3-0.6-2.5l-0.5-1.2c-0.4-0.9-0.5-1.9-0.3-2.8q0.2-1 0-2l-0.3-1.5q-0.6-1.8-0.9-3.7l-0.2-2.3q-0.1-0.8-0.1-1.6 0.1-1.8-0.4-3.4l-0.2-0.5q-0.4-1.3-0.5-2.8l-0.2-3.1-0.4-2q-0.1-0.3-0.2-0.7l-1.1-2.5c-0.2-0.7-1-1-1.6-0.7q-0.4 0.1-0.6 0.4l-2.6 3.3q-0.6 0.8-0.9 1.8c-0.3 1-0.4 2.1-0.2 3.1l0.2 0.8q0.1 0.8 0.4 1.5l0.2 0.6c0.7 1.6 1 3.3 1.1 5.1l0.1 2.4-0.2 6.9 0.8 9.5 0.5 2.7 0.3 4.2q0.1 0.8-0.2 1.6l-0.3 1c-0.2 0.5-0.5 0.8-1 1q-0.3 0.2-0.7 0.2h-4.2c-0.6 0-1.1-0.3-1.5-0.7l-0.2-0.1c-0.3-0.3-0.7-0.5-1.1-0.5q-0.4 0-0.7 0.2l-1 0.4c-0.8 0.4-1.7 0.7-2.6 0.7h-8.1c-0.8 0-1.5-0.5-1.7-1.2q-0.2-0.3-0.2-0.7v-1.3q0-0.8 0.4-1.5c0.4-0.7 1.1-1.1 1.8-1.3l0.7-0.1 1.2-0.2q1.2-0.2 2.3-0.2h1q1.2-0.1 2.4-0.4l1.1-0.4c1.2-0.5 2.2-1.4 2.7-2.7q0.3-0.7 0.3-1.6v-1.3q0-0.8-0.1-1.6l-0.5-3.6-0.9-3.8-2.2-10.7q-0.3-1.4-0.9-2.8-0.7-1.6-1-3.3l-0.3-2.1-0.6-1.9q-0.5-1.8-0.3-3.7 0.1-1.9 0.8-3.7l0.7-1.8 1.7-5 1.7-4.6 0.5-1.2q2-4.9 5-9.3l1.2-1.7 4.9-7.4 2.7-5.2q0.2-0.4 0.6-0.6c0.4-0.1 0.7-0.5 0.8-0.9l0.2-1.4q0.1-0.3 0.2-0.5l0.1-0.4c0.3-0.8 0.4-1.7 0.2-2.5l-0.1-0.6c0-0.6 0-1.2 0.3-1.7q0.2-0.6 0.8-1.1c0.6-0.5 1-1.2 1.1-1.9l0.2-1 0.4-2.5q0-0.2-0.1-0.5c-0.1-0.3-0.5-0.5-0.9-0.4h-0.3q-0.1 0-0.3 0.1l-3 1.6c-1.5 0.8-4.4 2.3-4.6 2.3-0.2 0-3.2 1.2-4.6 1.7l-4.9 1.5q-2.9 0.6-5.9 0.7l-3.6 0.1h-3.5q-0.7 0-1.3-0.1l-0.6-0.2q-0.7-0.1-1.2-0.5l-0.2-0.2q-0.3-0.2-0.7-0.3c-0.4-0.1-0.9 0-1.2 0.3-0.3 0.3-0.5 0.7-0.5 1.1v0.1c0 0.5-0.3 1.1-0.7 1.4l-1 0.7q-0.4 0.2-0.8 0.4l-2 0.8q-0.8 0.3-1.6 0.3h-0.5c-1 0-2 0.4-2.7 1.2q-0.2 0.3-0.4 0.5l-0.3 0.2c-1 0.8-2.3 1.3-3.7 1.4h-0.2q-0.8 0.1-1.7 0.3c-1.8 0.6-4.5 1.4-4.8 1.4-0.3 0-2.7 0.8-4.5 1.5q-1.2 0.4-2.5 0.6l-0.8 0.2c-1.9 0.3-3.8 1.1-5.3 2.4l-3.1 2.5-1.2 0.9c-0.4 0.3-0.6 0.9-0.4 1.4q0.1 0.2 0.1 0.4v0.8q0 1.1-0.4 2.1l-0.4 1.1-0.7 2q-0.2 0.5-0.1 1l0.1 0.3c0.1 0.6 0.7 1.1 1.3 1.1 0.4 0 0.8 0.1 1 0.4l0.7 0.7q0.6 0.6 1.4 0.8l2.4 0.8 1.6 0.4 3 0.3q1 0.2 2 0.7l0.5 0.2c1.2 0.6 2.1 1.7 2.5 3q0.3 0.9 0.9 1.6l1.5 1.9q0.4 0.5 0.5 1.2c0.2 0.6 0.6 1.2 1.2 1.7l0.5 0.4q0.3 0.2 0.5 0.4c1.2 1.3 1.3 3.3 0.2 4.7l-0.4 0.5-3.9 4.4c-1.1 1.1-2.3 2-3.7 2.6l-1.6 0.7q-0.3 0.1-0.5 0.3l-0.2 0.2c-0.6 0.6-0.5 1.6 0.2 2.1q0.2 0.1 0.3 0.3l1.9 2.3q1.6 1.9 2.7 4.2l0.3 0.6 3.2 6.7 0.6 1.2c1.3 2.4 2.8 4.6 4.6 6.7l1.9 1.8 2.5 2.4q0.4 0.3 0.8 0.8c0.7 0.9 1.7 1.6 2.8 2l0.8 0.3 0.9 0.2c0.8 0.2 1.4 0.8 1.5 1.6q0.1 0.5 0 1v0.1q-0.2 0.7-0.8 1.2l-0.9 0.8q-0.3 0.3-0.6 0.5c-0.7 0.5-1.6 0.8-2.4 0.9l-2.4 0.2c-1.1-0.1-2.1-0.5-2.9-1.1l-1.4-1.1-0.7-0.6c-0.2-0.2-0.6-0.3-0.8-0.1q-0.3 0.2-0.3 0.5l-0.1 0.2c-0.1 0.5-0.6 0.9-1.2 0.9l-2-0.3q-0.5 0-0.9-0.4c-0.4-0.3-0.6-0.8-0.5-1.2v-1.6q0-0.5-0.3-1c-0.2-0.4-0.3-1-0.2-1.5l0.3-1q0.3-0.9 0.2-1.8v-0.1q-0.2-1.2-0.8-2.3l-1-1.5q-0.7-1.2-1.6-2.2l-2-2.2-5.7-7.2q-0.4-0.5-1-1l-3.1-2.4c-0.5-0.4-1.4-0.4-1.9 0.1l-4.1 4.5-3.7 3.9q-0.6 0.7-1.3 1.2l-1.2 0.9c-0.9 0.5-1.5 1.4-1.7 2.4q-0.3 1-1 1.7l-0.6 0.7-1 1.2q-0.5 0.6-0.8 1.4c-0.5 1-0.6 2.1-0.5 3.3l0.1 0.5c0.2 1.2 0.6 2.4 1.4 3.5l0.9 1.2q0.5 0.8 0.8 1.7l0.2 0.8q0.1 0.3 0.1 0.6c-0.1 0.5-0.4 0.9-0.9 1.1-0.3 0.1-0.7 0.1-1 0l-0.9-0.4q-0.3-0.1-0.6-0.3l-2.8-1.9q-1.2-0.7-2.1-1.8l-1.8-2.1q-0.2-0.2-0.5-0.2l-0.2-0.1c-0.3-0.1-0.7 0-0.8 0.3-0.2 0.4-0.6 0.5-1 0.4l-0.5-0.2q-0.2-0.1-0.5-0.3l-0.8-0.9-0.8-1c-0.3-0.4-0.4-0.9-0.4-1.4q0.1-0.4 0.3-0.7l3.3-6.1q0.3-0.4 0.6-0.7l0.6-0.7c0.3-0.4 0.7-0.6 1.2-0.7q0.6-0.1 1-0.6l0.4-0.4q0.3-0.2 0.5-0.4l0.6-0.4q1.5-1 2.6-2.5l0.9-1.2 2.1-3.4q0 0 0 0l-0.5-0.1q0 0-0.1 0h-2.4c-1.2 0-2.2-0.7-2.7-1.8q-0.1-0.3-0.1-0.7l-0.3-2.1c-0.1-0.4-0.3-0.8-0.7-1.1-0.3-0.3-0.7-0.4-1.1-0.4h-1.2q-0.3 0-0.5 0c-1.2 0.2-2.1 1.3-2.2 2.5l-0.2 2c-0.1 0.7-0.4 1.4-1 1.8q-0.4 0.2-0.7 0.3l-0.5 0.1q-0.8 0.2-1.7 0.1l-2.8-0.3q-0.3 0-0.6-0.1c-0.8-0.4-1.3-1-1.4-1.8v-0.6-1c0-0.4-0.3-0.7-0.7-0.7q-0.2 0-0.3-0.1l-1.6-0.5-0.6-0.2c-0.5-0.2-1-0.5-1.3-1q-0.4-0.5-1-0.8l-1.9-0.9q-0.2-0.1-0.4-0.2l-0.1-0.1c-0.8-0.6-1.8-0.4-2.3 0.4v0.1c-0.2 0.3-0.6 0.6-1 0.6-0.6 0.1-1.2-0.2-1.4-0.8l-0.3-0.6q-0.2-0.5-0.6-0.9c-0.4-0.3-0.9-0.5-1.4-0.5h-3.7q-0.2 0-0.3 0l-0.4-0.1c-0.2-0.1-0.3-0.2-0.4-0.4 0-0.3-0.4-0.4-0.6-0.3l-0.3 0.1q-0.3 0.1-0.5 0l-2.4-0.6c-0.1-0.1-0.2-0.3-0.2-0.5 0.1-0.2-0.1-0.5-0.4-0.4-0.2 0.1-0.5 0.1-0.5 0.1-0.2 0-1.4-0.6-2-1q-0.2 0-0.3-0.1l-0.7-0.3c-0.5-0.1-0.8-0.6-0.7-1.1q0.1-0.2 0.2-0.4l0.8-1.1q0.1-0.2 0.2-0.4c0.1-0.4 0-0.8-0.3-1.1l-0.3-0.4q-0.3-0.4-0.7-0.6l-0.4-0.2c-0.6-0.2-0.9-0.8-0.9-1.4q0-0.3 0.1-0.5c0.2-0.5 0.6-0.9 1.1-1l0.8-0.2c0.2 0 0.4-0.2 0.4-0.3 0.1-0.2 0.2-0.4 0.4-0.4l1.4-0.3q0.2-0.1 0.4-0.2l0.9-0.3 0.2-0.1q0.6-0.3 1.3-0.4l1.9-0.3c0.3 0 0.7-0.3 0.8-0.6 0.1-0.3 0.4-0.5 0.7-0.6l1.4-0.3 3.8-0.4 0.9-0.2c0.6-0.2 1.1-0.6 1.3-1.2l0.1-0.3q0.2-0.4 0.6-0.6c0.3-0.2 0.6-0.2 0.9-0.1l0.4 0.2q0.6 0.3 1.2 0.2 0.7-0.1 1.2-0.6l0.6-0.6q1-0.8 2.2-1.2l1.1-0.3q0.6-0.2 1.2-0.5 0.5-0.3 0.9-0.7l1.7-1.7 1.9-1.5 1.1-0.7q0.8-0.5 1.6-0.6l0.5-0.1c0.5 0 1-0.2 1.3-0.6q0.3-0.3 0.5-0.7c0.2-0.5 0.4-1.1 0.4-1.2 0-0.2-0.2-1.5-0.4-2.1q-0.4-3-0.4-6v-2q0-2.3-0.4-4.6l-0.4-2.5c-0.1-0.4-0.4-0.8-0.7-1q-0.2-0.2-0.4-0.4l-0.4-0.7c-1-1.4-2.5-2.4-4.3-2.7l-0.5-0.1-2.3-0.7q-1.5-0.5-2.8-1.4-1.2-1-2.1-2.4l-0.1-0.3q-0.4-0.5-0.8-1-0.7-0.8-1.5-1.4l-0.7-0.4c-0.7-0.4-1.2-1-1.7-1.7q-0.5-1-1.4-1.6l-0.7-0.5-2.2-2-2.3-2.4c-0.5-0.5-1.1-0.9-1.8-1h-0.3c-0.5-0.1-1-0.4-1.2-0.9q-0.2-0.4-0.1-0.9c0.1-0.6 0-1.1-0.4-1.5l-0.2-0.3-0.9-1.3q-0.2-0.3-0.4-0.6c-0.3-0.7-0.4-1.5-0.3-2.2l0.1-0.9q0.1-0.5 0.1-1l-0.1-4.4-0.1-0.8c-0.1-0.4 0.2-0.8 0.6-0.9l0.1-0.1q0.3-0.1 0.5 0.1c0.4 0.2 0.9-0.1 0.9-0.5v-0.8c0-0.3 0.1-0.5 0.3-0.7l0.2-0.1c0.2-0.2 0.5-0.2 0.7 0 0.2 0.1 0.5 0.1 0.7 0l0.2-0.1c0.2-0.1 0.5-0.1 0.8 0 0.2 0.2 0.3 0.4 0.3 0.7l-0.4 4.6-0.5 3q0 0.2 0 0.5v0.2c0.1 0.7 0.8 1.3 1.5 1.2 0.5 0 0.9 0.2 1.2 0.5l1 1.3c1.9 2 4.1 3.7 6.7 4.7l0.3 0.1c1 0.6 3.2 1.7 3.3 1.9 0.1 0.1 5.1 3.3 7.5 4.8l1.8 1.4q0.6 0.5 1.4 0.6c0.9 0.2 1.6 0.6 2.1 1.3l1.3 1.4c0.1 0.1 2.3 0.3 3 0.2h0.6q1.3 0 2.6 0.4l1 0.4q0.3 0.1 0.5 0.1 0.4 0 0.7-0.2h0.1c0.5-0.3 0.9-0.8 1-1.4v-0.2q0-0.1 0-0.3v-0.9q0-0.4-0.1-0.8l-0.1-0.3c-0.1-0.5-0.4-0.9-0.8-1.2l-1.1-0.7c-0.7-0.5-1.2-1.2-1.5-1.9q-0.4-0.7-0.4-1.5l-0.1-1.3q-0.1-0.5-0.3-0.8-0.3-0.5-0.3-1v-1.1q0-0.4 0-0.8l0.2-1.1q0.3-2 0.9-3.8l0.9-2.6 0.4-1.9q0.6-2.1 0.6-4.3v-2.3q0-0.5-0.2-0.9l-0.8-2.4c0-0.1 0.1-0.2 0.2-0.2 0.2-0.1 0.2-0.3 0.1-0.5q0-0.1 0-0.1l-0.3-1.4-0.3-1.8c-0.1-0.3-0.5-0.4-0.6-0.1-0.1 0.2-0.3 0.3-0.4 0.1l-0.5-0.4q-0.2-0.2-0.2-0.5v-0.2c0-0.5-0.5-0.9-1-0.8-0.5 0.1-1-0.2-1-0.8v-0.7q0-0.2 0.2-0.3c0.3-0.2 0.2-0.6-0.1-0.7l-0.6-0.2q0 0-0.1 0c-0.4-0.3-0.5-0.9-0.2-1.3l0.2-0.1q0.1-0.1 0.1-0.2c0.3-0.5 0-1.1-0.4-1.2h-0.1c-0.3-0.1-0.5-0.4-0.5-0.8 0-0.2 0.1-0.5 0.3-0.6l1.1-0.7q0.1-0.1 0.2-0.2l0.5-0.5c0.2-0.2 0.5-0.2 0.7 0q0.2 0.1 0.4 0.1h0.9q0.4 0 0.7-0.2l0.5-0.2q0.2-0.1 0.4 0l0.3 0.2c0.2 0.1 0.2 0.3 0 0.4-0.2 0.1-0.2 0.4 0 0.5l0.9 0.3q0.1 0 0.1 0l0.9 0.2c0.6 0.1 0.8 0.9 0.2 1.2q-0.1 0.1-0.2 0.2c-0.4 0.4-0.2 1 0.3 1.1l0.5 0.1c0.5 0.1 0.7 0.7 0.4 1.1h-0.1q0 0.1-0.1 0.1c-0.4 0.1-0.4 0.7 0 0.8l0.5 0.2q0.1 0 0.1 0l0.6 0.3q0.4 0.2 0.5 0.5c0.2 0.4 0.2 0.9-0.1 1.2l-0.3 0.2c-0.1 0.2-0.4 0.2-0.6 0.1-0.3-0.2-0.6 0.1-0.6 0.4v0.3c0 0.5-0.7 0.8-1.1 0.4-0.2-0.2-0.6-0.2-0.9 0v0.1c-0.3 0.3-0.4 0.7-0.3 1.1l0.3 0.8 0.3 1.5c0.1 0.2 0.2 0.2 0.4 0.2 0.1-0.1 0.3 0 0.3 0.1l1.2 4c0.5 1.8 1.4 3.4 2.7 4.7l3.5 4 2 1.9 1.8 1.4c0.5 0.4 0.7 1 0.7 1.6q0 0.5 0.3 1 0.2 0.4 0.3 0.7l0.4 0.9q0.2 0.5 0.3 1.1c0.2 1 0.2 2-0.1 3l-0.2 0.5c-0.1 0.7 0.1 1.4 0.7 1.9q0.1 0.1 0.2 0.2l0.1 0.1c0.4 0.5 0.5 1.2 0.3 1.9v0.1q-0.1 0.3-0.3 0.6l-0.2 0.3-0.6 0.9c-0.3 0.4-0.4 0.9-0.4 1.3v0.2c0 0.4-0.2 0.8-0.4 1.1h-0.1c-0.2 0.3-0.6 0.6-1 0.6l-0.6 0.1c-0.4 0-0.7 0.3-0.8 0.7 0 0.5 0.2 0.9 0.7 1l1.3 0.4q0.2 0 0.5 0.1l2.5 0.1c0.5 0 1-0.2 1.2-0.6q0.2-0.4 0.7-0.5l0.5-0.2c0.6-0.2 1.3-0.2 1.9 0.1l1.3 0.6c1.4 0.6 2.9 0.9 4.4 0.9h0.1q1.2 0 2.5-0.3l0.9-0.2q0.8-0.2 1.5-0.5 0.7-0.3 1.5-0.5l1.3-0.2q0.9-0.2 1.7-0.7 0.9-0.6 1.9-0.8l1.9-0.3q0.7-0.1 1.3-0.4 0.8-0.3 1.8-0.4l2.8-0.2q1.7-0.2 3.3-0.9l0.2-0.1q0.5-0.2 1.1-0.4l1.6-0.4q0.1 0 0.3 0l0.5 0.1c0.1 0 0.2 0 0.2-0.1q0 0 0-0.1l0.2-0.4q0.2-0.4 0.2-0.8l0.1-0.5q0.1-0.8 0.4-1.4l0.1-0.3q0.2-0.3 0.3-0.7l0.1-0.5q0-0.4 0.3-0.7c0.2-0.2 0.6-0.3 0.9-0.3h1.2q0.4 0 0.7-0.1l1.3-0.2q0.9-0.1 1.8 0.1 1 0.2 2 0l1-0.3q0.7-0.1 1.4-0.4l0.4-0.2q0.8-0.4 1.7-0.5l3.2-0.3c0.2 0 0.4-0.1 0.5-0.3 0-0.2 0.2-0.4 0.3-0.4l0.9-0.3q0.3 0 0.6-0.2l0.8-0.5 0.2-0.1q1-0.5 2.2-0.5 1 0 1.8-0.4l0.6-0.2q1.1-0.5 2-1.2l2.2-1.8 0.6-0.6q2.6-2.5 4.7-5.5l2.1-2.5 0.7-0.6c1-1.1 2.4-2 3.8-2.6q1.4-0.6 2.9-0.8l1.6-0.2 3.2-0.3q0.6-0.1 1.2-0.4l0.3-0.1q0.4-0.2 0.7-0.6l0.1-0.2c0.3-0.3 0.4-0.7 0.3-1.1v-0.2q-0.1-0.2-0.2-0.4-0.3-0.2-0.6-0.2h-0.3q-0.4 0-0.8-0.4l-0.3-0.2c-0.4-0.3-0.7-0.8-0.8-1.3q0-0.2 0-0.5v-0.6q0-0.8-0.2-1.6l-0.1-0.4q-0.1-0.7-0.5-1.3l-0.1-0.2q-0.2-0.3-0.4-0.4l-0.4-0.5c-0.3-0.3-0.4-0.6-0.3-1q0.1-0.2 0.3-0.4l0.3-0.3c0.3-0.4 0.6-0.9 0.7-1.4l0.2-1q0.1-0.5 0.1-1v-1.1q0-0.5 0.1-1v-0.3c0.2-0.7 0.6-1.4 1.1-1.9q0.2-0.2 0.6-0.5l0.1-0.1q0.8-0.5 1.2-1.3h0.1q0.3-0.7 1-1.1c0.6-0.5 1.5-0.8 2.4-0.8l2.1 0.1q1.2 0.1 2.3 0.4l0.6 0.2q1.8 0.6 3.4 1.7l0.1 0.1q1.5 1.1 2.5 2.6c0.8 1.3 1.4 2.9 1.5 4.5l-0.2 3.4q0 0.4-0.1 0.8l-0.9 4.6q0 0.1 0 0.1 0.1 0 0.1 0l2.4-0.8q1.2-0.4 2.6-0.4l2.4 0.1q3 0.1 5.8-0.7l1.5-0.3q1.1-0.3 2.2-0.9 0.9-0.4 1.6-1l0.4-0.3q1.5-1.1 3.2-1.9l0.8-0.3 2.4-1c1.6-0.6 3-1.5 4.2-2.7q1.1-1 2.5-1.8l1.6-1q2.9-1.6 5.3-3.9l1.2-1.1q0.6-0.6 1.1-1.3l0.4-0.5c0.8-1.1 1.4-2.4 1.6-3.7 0.4-1.3 1.1-2.4 2.1-3.2l0.2-0.1q0.5-0.4 1.1-0.7l1-0.4c0.8-0.3 1.6-0.2 2.2 0.2 0.5 0.3 0.8 0.8 1 1.3l0.8 2.9 0.1 0.6c0.1 1.2-0.2 2.5-0.9 3.5q-0.5 0.8-1.4 1.4l-2.8 1.8c-2.9 2.2-5.5 4.9-7.6 8l-0.3 0.4-5.1 5.7-13.5 12.1q-1 0.9-2.3 1.4z"/>
</svg>