<svg width="440" height="330" viewBox="0 0 440 330" fill="none" xmlns="http://www.w3.org/2000/svg">
<path d="M419.229 324.505V284.396H421.953L434.731 315.542V284.396H438V324.505H435.325L422.498 293.012V324.505H419.229Z" fill="white"/>
<path d="M387.999 324.505L396.468 284.396H400.43L408.949 324.505H405.234L403.253 313.76H393.694L391.664 324.505H387.999ZM394.239 311.036H402.758L398.498 289.397L394.239 311.036Z" fill="white"/>
<path d="M370.384 324.505V287.318H362.806V284.396H381.528V287.318H374.148V324.505H370.384Z" fill="white"/>
<path d="M345.721 325C343.542 325 341.726 324.554 340.273 323.663C338.853 322.739 337.78 321.468 337.054 319.85C336.327 318.2 335.882 316.285 335.717 314.106L339.035 313.116C339.2 314.767 339.497 316.269 339.926 317.622C340.356 318.942 341.033 319.999 341.957 320.791C342.882 321.55 344.153 321.93 345.771 321.93C347.554 321.93 348.941 321.468 349.931 320.543C350.922 319.619 351.417 318.15 351.417 316.136C351.417 314.354 350.971 312.819 350.08 311.531C349.221 310.244 348.033 308.89 346.514 307.471L339.431 300.687C338.176 299.466 337.252 298.211 336.658 296.924C336.063 295.603 335.766 294.167 335.766 292.616C335.766 289.843 336.592 287.714 338.243 286.228C339.893 284.743 342.089 284 344.83 284C346.25 284 347.521 284.182 348.643 284.545C349.799 284.908 350.773 285.502 351.566 286.327C352.391 287.12 353.035 288.159 353.497 289.447C353.959 290.734 354.273 292.302 354.438 294.151L351.219 294.993C351.087 293.309 350.806 291.873 350.377 290.685C349.981 289.463 349.337 288.539 348.445 287.912C347.587 287.285 346.382 286.971 344.83 286.971C343.179 286.971 341.825 287.4 340.768 288.258C339.712 289.117 339.184 290.454 339.184 292.269C339.184 293.359 339.382 294.349 339.778 295.24C340.207 296.132 340.95 297.089 342.007 298.112L349.089 304.797C350.674 306.283 352.044 307.933 353.2 309.749C354.356 311.564 354.933 313.611 354.933 315.889C354.933 317.903 354.537 319.586 353.745 320.94C352.985 322.293 351.912 323.316 350.525 324.01C349.139 324.67 347.537 325 345.721 325Z" fill="white"/>
<path d="M304.523 324.505V284.396H308.336V302.173H320.966V284.396H324.73V324.505H320.966V304.995H308.336V324.505H304.523Z" fill="white"/>
<path d="M275.665 324.505V284.396H279.479V305.589L290.177 284.396H293.792L285.571 301.628L295.575 324.505H291.861L283.045 304.45L279.479 310.987V324.505H275.665Z" fill="white"/>
<path d="M244.484 324.505L252.953 284.396H256.916L265.434 324.505H261.72L259.739 313.76H250.18L248.149 324.505H244.484ZM250.725 311.036H259.243L254.984 289.397L250.725 311.036Z" fill="white"/>
<path d="M219.214 324.505V321.682L232.636 287.219H220.303V284.396H236.697V286.377L222.928 321.682H236.697V324.505H219.214Z" fill="white"/>
<path d="M189.816 324.505L198.285 284.396H202.247L210.766 324.505H207.052L205.07 313.76H195.512L193.481 324.505H189.816ZM196.056 311.036H204.575L200.316 289.397L196.056 311.036Z" fill="white"/>
<path d="M163.088 324.505V284.396H166.902V305.589L177.6 284.396H181.215L172.993 301.628L182.998 324.505H179.284L170.468 304.45L166.902 310.987V324.505H163.088Z" fill="white"/>
<path d="M109.96 324.505L110.951 284.396H114.715L122.64 319.207L130.713 284.396H134.477L135.467 324.505H132.347L131.555 292.566L123.878 324.505H121.451L113.873 292.616L113.081 324.505H109.96Z" fill="white"/>
<path d="M85.0759 324.505V284.396H99.5875V287.318H88.8895V302.371H97.6064V305.144H88.8895V321.682H99.6866V324.505H85.0759Z" fill="white"/>
<path d="M60.7659 324.505V284.396H64.53V321.682H75.9214V324.505H60.7659Z" fill="white"/>
<path d="M29.5355 324.505L38.0048 284.396H41.967L50.4858 324.505H46.7712L44.7901 313.76H35.2312L33.2006 324.505H29.5355ZM35.776 311.036H44.2948L40.0354 289.397L35.776 311.036Z" fill="white"/>
<path d="M12.0046 325C9.82539 325 8.00937 324.554 6.55656 323.663C5.13676 322.739 4.06366 321.468 3.33725 319.85C2.61084 318.2 2.16509 316.285 2 314.106L5.31836 313.116C5.48345 314.767 5.78062 316.269 6.20986 317.622C6.6391 318.942 7.31598 319.999 8.2405 320.791C9.16502 321.55 10.4362 321.93 12.0541 321.93C13.8371 321.93 15.2239 321.468 16.2145 320.543C17.205 319.619 17.7003 318.15 17.7003 316.136C17.7003 314.354 17.2546 312.819 16.3631 311.531C15.5046 310.244 14.3159 308.89 12.7971 307.471L5.71458 300.687C4.45988 299.466 3.53536 298.211 2.94103 296.924C2.34669 295.603 2.04953 294.167 2.04953 292.616C2.04953 289.843 2.87499 287.714 4.52592 286.228C6.17684 284.743 8.37257 284 11.1131 284C12.5329 284 13.8041 284.182 14.9268 284.545C16.0824 284.908 17.0564 285.502 17.8489 286.327C18.6744 287.12 19.3182 288.159 19.7805 289.447C20.2427 290.734 20.5564 292.302 20.7215 294.151L17.5022 294.993C17.3701 293.309 17.0895 291.873 16.6602 290.685C16.264 289.463 15.6201 288.539 14.7286 287.912C13.8702 287.285 12.665 286.971 11.1131 286.971C9.46219 286.971 8.10843 287.4 7.05183 288.258C5.99524 289.117 5.46695 290.454 5.46695 292.269C5.46695 293.359 5.66506 294.349 6.06128 295.24C6.49052 296.132 7.23344 297.089 8.29003 298.112L15.3725 304.797C16.9574 306.283 18.3277 307.933 19.4833 309.749C20.639 311.564 21.2168 313.611 21.2168 315.889C21.2168 317.903 20.8206 319.586 20.0281 320.94C19.2687 322.293 18.1956 323.316 16.8088 324.01C15.422 324.67 13.8206 325 12.0046 325Z" fill="white"/>
<path d="M352.924 259.75C352.701 259.75 352.502 259.684 352.326 259.551C352.151 259.417 352.024 259.259 351.944 259.076L348.289 247.566C348.178 247.116 348.178 246.758 348.289 246.492C348.416 246.226 348.663 246.092 349.03 246.092C349.268 246.092 349.476 246.159 349.651 246.292C349.826 246.425 349.961 246.642 350.057 246.941L353.282 257.328H352.661L355.671 246.891C355.735 246.658 355.846 246.467 356.005 246.317C356.181 246.167 356.396 246.092 356.65 246.092C356.921 246.092 357.136 246.167 357.296 246.317C357.471 246.467 357.59 246.658 357.654 246.891L360.401 256.954H359.995L363.125 246.941C363.3 246.375 363.626 246.092 364.104 246.092C364.486 246.092 364.749 246.242 364.893 246.542C365.036 246.825 365.036 247.166 364.893 247.566L361.213 259.076C361.15 259.259 361.03 259.417 360.855 259.551C360.696 259.684 360.505 259.75 360.282 259.75C360.059 259.75 359.852 259.684 359.661 259.551C359.485 259.417 359.366 259.259 359.302 259.076L356.459 248.914H356.746L353.855 259.076C353.792 259.276 353.672 259.442 353.497 259.576C353.322 259.692 353.131 259.75 352.924 259.75Z" fill="white"/>
<path d="M339.031 259.875C337.741 259.875 336.595 259.576 335.591 258.976C334.604 258.377 333.823 257.553 333.25 256.504C332.677 255.456 332.39 254.265 332.39 252.934C332.39 251.586 332.677 250.387 333.25 249.338C333.823 248.29 334.604 247.466 335.591 246.866C336.595 246.267 337.741 245.968 339.031 245.968C340.306 245.968 341.436 246.267 342.424 246.866C343.411 247.466 344.192 248.29 344.765 249.338C345.338 250.387 345.633 251.586 345.649 252.934C345.649 254.265 345.362 255.456 344.789 256.504C344.216 257.553 343.427 258.377 342.424 258.976C341.436 259.576 340.306 259.875 339.031 259.875ZM339.031 257.978C339.923 257.978 340.72 257.761 341.42 257.328C342.121 256.879 342.671 256.28 343.069 255.531C343.467 254.765 343.666 253.899 343.666 252.934C343.666 251.968 343.467 251.103 343.069 250.337C342.671 249.571 342.121 248.972 341.42 248.539C340.72 248.09 339.923 247.865 339.031 247.865C338.14 247.865 337.335 248.09 336.619 248.539C335.918 248.972 335.36 249.571 334.946 250.337C334.548 251.103 334.349 251.968 334.349 252.934C334.349 253.899 334.548 254.765 334.946 255.531C335.36 256.28 335.918 256.879 336.619 257.328C337.335 257.761 338.14 257.978 339.031 257.978Z" fill="white"/>
<path d="M316.462 254.357C316.144 254.357 315.889 254.257 315.698 254.057C315.523 253.858 315.435 253.608 315.435 253.308V241.323C315.435 240.99 315.523 240.732 315.698 240.549C315.889 240.35 316.144 240.25 316.462 240.25C316.765 240.25 317.004 240.35 317.179 240.549C317.37 240.732 317.466 240.99 317.466 241.323V253.308C317.466 253.608 317.37 253.858 317.179 254.057C317.004 254.257 316.765 254.357 316.462 254.357ZM326.592 259.75C326.289 259.75 326.042 259.65 325.851 259.451C325.66 259.251 325.564 259.001 325.564 258.702V252.335C325.564 251.319 325.381 250.495 325.015 249.863C324.664 249.213 324.179 248.731 323.558 248.414C322.936 248.082 322.228 247.915 321.431 247.915C320.683 247.915 320.006 248.073 319.401 248.39C318.811 248.689 318.342 249.105 317.991 249.638C317.641 250.154 317.466 250.753 317.466 251.436H316.08C316.112 250.387 316.375 249.455 316.868 248.639C317.378 247.807 318.055 247.149 318.899 246.667C319.743 246.184 320.683 245.943 321.718 245.943C322.833 245.943 323.828 246.192 324.704 246.692C325.596 247.174 326.297 247.89 326.807 248.839C327.332 249.788 327.595 250.953 327.595 252.335V258.702C327.595 259.001 327.499 259.251 327.308 259.451C327.117 259.65 326.878 259.75 326.592 259.75ZM316.462 259.75C316.144 259.75 315.889 259.659 315.698 259.476C315.523 259.276 315.435 259.018 315.435 258.702V247.166C315.435 246.833 315.523 246.575 315.698 246.392C315.889 246.192 316.144 246.092 316.462 246.092C316.765 246.092 317.004 246.192 317.179 246.392C317.37 246.575 317.466 246.833 317.466 247.166V258.702C317.466 259.018 317.37 259.276 317.179 259.476C317.004 259.659 316.765 259.75 316.462 259.75Z" fill="white"/>
<path d="M304.017 260C302.998 260 302.043 259.842 301.151 259.526C300.275 259.209 299.51 258.768 298.857 258.202C298.204 257.62 297.718 256.945 297.4 256.18C297.257 255.897 297.249 255.63 297.376 255.381C297.519 255.131 297.75 254.965 298.069 254.881C298.308 254.815 298.547 254.848 298.786 254.981C299.024 255.098 299.2 255.289 299.311 255.556C299.55 256.022 299.892 256.446 300.338 256.829C300.8 257.195 301.342 257.486 301.963 257.703C302.6 257.903 303.285 258.002 304.017 258.002C304.846 258.002 305.586 257.861 306.239 257.578C306.892 257.295 307.41 256.887 307.792 256.355C308.174 255.822 308.365 255.173 308.365 254.407C308.365 253.442 308.015 252.601 307.314 251.885C306.613 251.153 305.499 250.695 303.97 250.512C302.074 250.279 300.585 249.671 299.502 248.689C298.435 247.707 297.902 246.492 297.902 245.044C297.902 244.012 298.172 243.121 298.714 242.372C299.255 241.606 299.996 241.024 300.936 240.624C301.875 240.208 302.942 240 304.137 240C305.045 240 305.857 240.15 306.574 240.449C307.29 240.732 307.912 241.115 308.437 241.598C308.979 242.081 309.425 242.622 309.775 243.221C309.966 243.521 310.03 243.812 309.966 244.095C309.918 244.361 309.775 244.569 309.536 244.719C309.281 244.852 309.01 244.877 308.724 244.794C308.453 244.694 308.246 244.511 308.103 244.245C307.864 243.845 307.561 243.479 307.195 243.146C306.844 242.797 306.414 242.522 305.905 242.322C305.395 242.122 304.79 242.014 304.089 241.998C302.863 241.998 301.859 242.264 301.079 242.797C300.299 243.329 299.908 244.12 299.908 245.169C299.908 245.701 300.044 246.209 300.315 246.692C300.601 247.158 301.071 247.557 301.724 247.89C302.393 248.223 303.301 248.473 304.447 248.639C306.422 248.906 307.904 249.53 308.891 250.512C309.878 251.494 310.372 252.784 310.372 254.382C310.372 255.298 310.205 256.105 309.87 256.804C309.552 257.503 309.098 258.094 308.509 258.577C307.919 259.043 307.235 259.401 306.454 259.65C305.69 259.883 304.877 260 304.017 260Z" fill="white"/>
<path d="M279.406 259.875C278.1 259.875 276.946 259.584 275.942 259.001C274.939 258.402 274.151 257.578 273.577 256.529C273.004 255.481 272.717 254.282 272.717 252.934C272.717 251.569 272.988 250.37 273.53 249.338C274.071 248.29 274.812 247.466 275.751 246.866C276.707 246.267 277.806 245.968 279.048 245.968C280.259 245.968 281.31 246.259 282.202 246.841C283.109 247.407 283.802 248.198 284.28 249.213C284.774 250.229 285.021 251.386 285.021 252.684C285.021 252.967 284.933 253.2 284.758 253.383C284.583 253.55 284.36 253.633 284.089 253.633H274.103V251.91H284.208L283.181 252.659C283.197 251.744 283.038 250.92 282.703 250.187C282.369 249.455 281.891 248.881 281.27 248.464C280.649 248.048 279.908 247.84 279.048 247.84C278.14 247.84 277.344 248.057 276.659 248.489C275.99 248.922 275.473 249.53 275.106 250.312C274.756 251.078 274.581 251.952 274.581 252.934C274.581 253.916 274.788 254.79 275.202 255.556C275.616 256.321 276.181 256.921 276.898 257.353C277.631 257.786 278.467 258.002 279.406 258.002C279.948 258.002 280.497 257.903 281.055 257.703C281.628 257.503 282.082 257.253 282.417 256.954C282.608 256.804 282.823 256.729 283.062 256.729C283.316 256.712 283.524 256.779 283.683 256.929C283.922 257.145 284.041 257.378 284.041 257.628C284.057 257.878 283.954 258.094 283.731 258.277C283.205 258.743 282.536 259.126 281.724 259.426C280.912 259.725 280.139 259.875 279.406 259.875Z" fill="white"/>
<path d="M263.575 259.875C262.317 259.875 261.194 259.576 260.207 258.976C259.219 258.36 258.439 257.528 257.865 256.479C257.308 255.431 257.029 254.249 257.029 252.934C257.029 251.602 257.3 250.412 257.841 249.363C258.399 248.315 259.147 247.491 260.087 246.891C261.043 246.275 262.142 245.968 263.384 245.968C264.34 245.968 265.223 246.167 266.036 246.567C266.848 246.95 267.565 247.532 268.186 248.315C268.377 248.548 268.441 248.789 268.377 249.039C268.329 249.272 268.186 249.48 267.947 249.663C267.756 249.796 267.541 249.846 267.302 249.813C267.079 249.763 266.872 249.63 266.681 249.413C265.805 248.381 264.706 247.865 263.384 247.865C262.508 247.865 261.736 248.082 261.067 248.514C260.414 248.947 259.904 249.546 259.538 250.312C259.171 251.061 258.988 251.935 258.988 252.934C258.988 253.899 259.179 254.765 259.562 255.531C259.96 256.28 260.501 256.879 261.186 257.328C261.887 257.761 262.683 257.978 263.575 257.978C264.18 257.978 264.722 257.894 265.2 257.728C265.693 257.561 266.131 257.303 266.514 256.954C266.737 256.771 266.959 256.671 267.182 256.654C267.405 256.638 267.612 256.704 267.804 256.854C268.011 257.054 268.13 257.278 268.162 257.528C268.194 257.778 268.114 258.002 267.923 258.202C266.76 259.318 265.311 259.875 263.575 259.875Z" fill="white"/>
<path d="M251.231 259.75C250.928 259.75 250.681 259.65 250.49 259.451C250.299 259.251 250.204 259.001 250.204 258.702V252.335C250.204 251.319 250.02 250.495 249.654 249.863C249.304 249.213 248.818 248.731 248.197 248.414C247.576 248.082 246.867 247.915 246.071 247.915C245.322 247.915 244.645 248.073 244.04 248.39C243.451 248.689 242.981 249.105 242.63 249.638C242.28 250.154 242.105 250.753 242.105 251.436H240.719C240.751 250.387 241.014 249.455 241.508 248.639C242.017 247.807 242.694 247.149 243.538 246.667C244.382 246.184 245.322 245.943 246.357 245.943C247.472 245.943 248.468 246.192 249.344 246.692C250.235 247.174 250.936 247.89 251.446 248.839C251.971 249.788 252.234 250.953 252.234 252.335V258.702C252.234 259.001 252.139 259.251 251.948 259.451C251.756 259.65 251.518 259.75 251.231 259.75ZM241.101 259.75C240.783 259.75 240.528 259.659 240.337 259.476C240.162 259.276 240.074 259.018 240.074 258.702V247.166C240.074 246.833 240.162 246.575 240.337 246.392C240.528 246.192 240.783 246.092 241.101 246.092C241.404 246.092 241.643 246.192 241.818 246.392C242.009 246.575 242.105 246.833 242.105 247.166V258.702C242.105 259.018 242.009 259.276 241.818 259.476C241.643 259.659 241.404 259.75 241.101 259.75Z" fill="white"/>
<path d="M228.158 259.875C226.948 259.875 225.865 259.576 224.909 258.976C223.954 258.36 223.197 257.528 222.64 256.479C222.082 255.431 221.804 254.249 221.804 252.934C221.804 251.602 222.09 250.412 222.664 249.363C223.253 248.315 224.049 247.491 225.053 246.891C226.056 246.275 227.187 245.968 228.445 245.968C229.687 245.968 230.802 246.275 231.79 246.891C232.793 247.491 233.581 248.315 234.155 249.363C234.744 250.412 235.047 251.602 235.063 252.934L234.25 253.358C234.25 254.59 233.98 255.697 233.438 256.679C232.912 257.661 232.188 258.444 231.264 259.026C230.356 259.592 229.321 259.875 228.158 259.875ZM228.445 257.978C229.337 257.978 230.125 257.761 230.81 257.328C231.511 256.879 232.06 256.271 232.459 255.506C232.873 254.74 233.08 253.883 233.08 252.934C233.08 251.968 232.873 251.111 232.459 250.362C232.06 249.596 231.511 248.989 230.81 248.539C230.125 248.09 229.337 247.865 228.445 247.865C227.569 247.865 226.773 248.09 226.056 248.539C225.355 248.989 224.798 249.596 224.384 250.362C223.97 251.111 223.763 251.968 223.763 252.934C223.763 253.883 223.97 254.74 224.384 255.506C224.798 256.271 225.355 256.879 226.056 257.328C226.773 257.761 227.569 257.978 228.445 257.978ZM234.035 259.75C233.749 259.75 233.502 259.659 233.295 259.476C233.104 259.276 233.008 259.018 233.008 258.702V254.582L233.462 252.409L235.063 252.934V258.702C235.063 259.018 234.967 259.276 234.776 259.476C234.585 259.659 234.338 259.75 234.035 259.75Z" fill="white"/>
<path d="M203.828 259.75C203.526 259.75 203.279 259.65 203.088 259.451C202.897 259.251 202.801 258.993 202.801 258.677V241.323C202.801 241.007 202.897 240.749 203.088 240.549C203.279 240.35 203.526 240.25 203.828 240.25H208.129C209.498 240.25 210.749 240.491 211.879 240.974C213.026 241.44 214.014 242.114 214.842 242.996C215.67 243.862 216.307 244.886 216.753 246.067C217.199 247.249 217.422 248.556 217.422 249.988C217.422 251.419 217.199 252.734 216.753 253.933C216.307 255.114 215.67 256.146 214.842 257.029C214.014 257.894 213.026 258.568 211.879 259.051C210.749 259.517 209.498 259.75 208.129 259.75H203.828ZM204.856 257.828H208.129C209.562 257.828 210.82 257.495 211.903 256.829C213.002 256.146 213.862 255.214 214.483 254.032C215.105 252.851 215.415 251.502 215.415 249.988C215.415 248.473 215.105 247.124 214.483 245.943C213.862 244.761 213.002 243.837 211.903 243.171C210.82 242.505 209.562 242.172 208.129 242.172H204.856V257.828Z" fill="white"/>
<path d="M188.729 259.75C188.06 259.75 187.47 259.567 186.961 259.201C186.451 258.818 186.053 258.294 185.766 257.628C185.48 256.962 185.336 256.196 185.336 255.331V241.298C185.336 240.982 185.424 240.732 185.599 240.549C185.79 240.35 186.037 240.25 186.34 240.25C186.626 240.25 186.857 240.35 187.032 240.549C187.224 240.732 187.319 240.982 187.319 241.298V255.331C187.319 256.013 187.447 256.579 187.701 257.029C187.972 257.462 188.315 257.678 188.729 257.678H189.326C189.581 257.678 189.788 257.778 189.947 257.978C190.106 258.161 190.186 258.402 190.186 258.702C190.186 259.018 190.066 259.276 189.828 259.476C189.605 259.659 189.31 259.75 188.944 259.75H188.729Z" fill="white"/>
<path d="M173.898 259.875C172.688 259.875 171.605 259.576 170.649 258.976C169.694 258.36 168.937 257.528 168.38 256.479C167.822 255.431 167.543 254.249 167.543 252.934C167.543 251.602 167.83 250.412 168.404 249.363C168.993 248.315 169.789 247.491 170.793 246.891C171.796 246.275 172.927 245.968 174.185 245.968C175.427 245.968 176.542 246.275 177.529 246.891C178.533 247.491 179.321 248.315 179.895 249.363C180.484 250.412 180.786 251.602 180.802 252.934L179.99 253.358C179.99 254.59 179.719 255.697 179.178 256.679C178.652 257.661 177.928 258.444 177.004 259.026C176.096 259.592 175.061 259.875 173.898 259.875ZM174.185 257.978C175.077 257.978 175.865 257.761 176.55 257.328C177.251 256.879 177.8 256.271 178.198 255.506C178.612 254.74 178.82 253.883 178.82 252.934C178.82 251.968 178.612 251.111 178.198 250.362C177.8 249.596 177.251 248.989 176.55 248.539C175.865 248.09 175.077 247.865 174.185 247.865C173.309 247.865 172.513 248.09 171.796 248.539C171.095 248.989 170.538 249.596 170.124 250.362C169.709 251.111 169.502 251.968 169.502 252.934C169.502 253.883 169.709 254.74 170.124 255.506C170.538 256.271 171.095 256.879 171.796 257.328C172.513 257.761 173.309 257.978 174.185 257.978ZM179.775 259.75C179.488 259.75 179.242 259.659 179.035 259.476C178.843 259.276 178.748 259.018 178.748 258.702V254.582L179.202 252.409L180.802 252.934V258.702C180.802 259.018 180.707 259.276 180.516 259.476C180.325 259.659 180.078 259.75 179.775 259.75Z" fill="white"/>
<path d="M161.745 259.75C161.443 259.75 161.196 259.65 161.005 259.451C160.813 259.251 160.718 259.001 160.718 258.702V252.335C160.718 251.319 160.535 250.495 160.168 249.863C159.818 249.213 159.332 248.731 158.711 248.414C158.09 248.082 157.381 247.915 156.585 247.915C155.836 247.915 155.159 248.073 154.554 248.39C153.965 248.689 153.495 249.105 153.145 249.638C152.794 250.154 152.619 250.753 152.619 251.436H151.234C151.265 250.387 151.528 249.455 152.022 248.639C152.532 247.807 153.208 247.149 154.053 246.667C154.897 246.184 155.836 245.943 156.872 245.943C157.986 245.943 158.982 246.192 159.858 246.692C160.75 247.174 161.45 247.89 161.96 248.839C162.486 249.788 162.748 250.953 162.748 252.335V258.702C162.748 259.001 162.653 259.251 162.462 259.451C162.271 259.65 162.032 259.75 161.745 259.75ZM151.616 259.75C151.297 259.75 151.042 259.659 150.851 259.476C150.676 259.276 150.588 259.018 150.588 258.702V247.166C150.588 246.833 150.676 246.575 150.851 246.392C151.042 246.192 151.297 246.092 151.616 246.092C151.918 246.092 152.157 246.192 152.332 246.392C152.524 246.575 152.619 246.833 152.619 247.166V258.702C152.619 259.018 152.524 259.276 152.332 259.476C152.157 259.659 151.918 259.75 151.616 259.75Z" fill="white"/>
<path d="M138.959 259.875C137.669 259.875 136.523 259.576 135.519 258.976C134.532 258.377 133.751 257.553 133.178 256.504C132.605 255.456 132.318 254.265 132.318 252.934C132.318 251.586 132.605 250.387 133.178 249.338C133.751 248.29 134.532 247.466 135.519 246.866C136.523 246.267 137.669 245.968 138.959 245.968C140.233 245.968 141.364 246.267 142.352 246.866C143.339 247.466 144.12 248.29 144.693 249.338C145.266 250.387 145.561 251.586 145.577 252.934C145.577 254.265 145.29 255.456 144.717 256.504C144.143 257.553 143.355 258.377 142.352 258.976C141.364 259.576 140.233 259.875 138.959 259.875ZM138.959 257.978C139.851 257.978 140.648 257.761 141.348 257.328C142.049 256.879 142.599 256.28 142.997 255.531C143.395 254.765 143.594 253.899 143.594 252.934C143.594 251.968 143.395 251.103 142.997 250.337C142.599 249.571 142.049 248.972 141.348 248.539C140.648 248.09 139.851 247.865 138.959 247.865C138.067 247.865 137.263 248.09 136.546 248.539C135.846 248.972 135.288 249.571 134.874 250.337C134.476 251.103 134.277 251.968 134.277 252.934C134.277 253.899 134.476 254.765 134.874 255.531C135.288 256.28 135.846 256.879 136.546 257.328C137.263 257.761 138.067 257.978 138.959 257.978Z" fill="white"/>
<path d="M125.94 259.75C125.637 259.75 125.391 259.659 125.199 259.476C125.008 259.276 124.913 259.01 124.913 258.677V247.166C124.913 246.833 125.008 246.575 125.199 246.392C125.391 246.192 125.637 246.092 125.94 246.092C126.243 246.092 126.482 246.192 126.657 246.392C126.848 246.575 126.943 246.833 126.943 247.166V258.677C126.943 259.01 126.848 259.276 126.657 259.476C126.482 259.659 126.243 259.75 125.94 259.75ZM125.916 243.621C125.534 243.621 125.207 243.479 124.937 243.196C124.666 242.896 124.53 242.547 124.53 242.147C124.53 241.731 124.666 241.39 124.937 241.124C125.223 240.857 125.55 240.724 125.916 240.724C126.282 240.724 126.601 240.857 126.872 241.124C127.158 241.39 127.302 241.731 127.302 242.147C127.302 242.547 127.166 242.896 126.896 243.196C126.625 243.479 126.298 243.621 125.916 243.621Z" fill="white"/>
<path d="M118.526 259.75C117.698 259.75 116.957 259.542 116.304 259.126C115.651 258.71 115.134 258.136 114.751 257.403C114.385 256.671 114.202 255.847 114.202 254.931V242.796C114.202 242.497 114.289 242.247 114.465 242.047C114.656 241.848 114.903 241.748 115.205 241.748C115.492 241.748 115.731 241.848 115.922 242.047C116.113 242.247 116.209 242.497 116.209 242.796V254.931C116.209 255.714 116.424 256.363 116.854 256.879C117.3 257.395 117.857 257.653 118.526 257.653H119.243C119.497 257.653 119.712 257.753 119.888 257.953C120.063 258.152 120.15 258.402 120.15 258.702C120.15 259.018 120.039 259.276 119.816 259.476C119.609 259.659 119.338 259.75 119.004 259.75H118.526ZM112.792 248.414C112.522 248.414 112.299 248.331 112.123 248.165C111.948 247.982 111.861 247.765 111.861 247.516C111.861 247.249 111.948 247.033 112.123 246.866C112.299 246.683 112.522 246.592 112.792 246.592H118.693C118.964 246.592 119.187 246.683 119.362 246.866C119.537 247.033 119.625 247.249 119.625 247.516C119.625 247.765 119.537 247.982 119.362 248.165C119.187 248.331 118.964 248.414 118.693 248.414H112.792Z" fill="white"/>
<path d="M101.617 259.875C100.407 259.875 99.3236 259.576 98.368 258.976C97.4124 258.36 96.6558 257.528 96.0984 256.479C95.541 255.431 95.2623 254.249 95.2623 252.934C95.2623 251.602 95.5489 250.412 96.1223 249.363C96.7116 248.315 97.5079 247.491 98.5113 246.891C99.5147 246.275 100.645 245.968 101.904 245.968C103.146 245.968 104.261 246.275 105.248 246.891C106.252 247.491 107.04 248.315 107.613 249.363C108.203 250.412 108.505 251.602 108.521 252.934L107.709 253.358C107.709 254.59 107.438 255.697 106.897 256.679C106.371 257.661 105.646 258.444 104.723 259.026C103.815 259.592 102.78 259.875 101.617 259.875ZM101.904 257.978C102.796 257.978 103.584 257.761 104.269 257.328C104.97 256.879 105.519 256.271 105.917 255.506C106.331 254.74 106.538 253.883 106.538 252.934C106.538 251.968 106.331 251.111 105.917 250.362C105.519 249.596 104.97 248.989 104.269 248.539C103.584 248.09 102.796 247.865 101.904 247.865C101.028 247.865 100.231 248.09 99.5147 248.539C98.8139 248.989 98.2565 249.596 97.8424 250.362C97.4283 251.111 97.2212 251.968 97.2212 252.934C97.2212 253.883 97.4283 254.74 97.8424 255.506C98.2565 256.271 98.8139 256.879 99.5147 257.328C100.231 257.761 101.028 257.978 101.904 257.978ZM107.494 259.75C107.207 259.75 106.96 259.659 106.753 259.476C106.562 259.276 106.467 259.018 106.467 258.702V254.582L106.921 252.409L108.521 252.934V258.702C108.521 259.018 108.426 259.276 108.235 259.476C108.043 259.659 107.797 259.75 107.494 259.75Z" fill="white"/>
<path d="M76.0273 259.75C75.7247 259.75 75.4778 259.65 75.2867 259.451C75.0956 259.251 75 258.993 75 258.677V241.323C75 241.007 75.0956 240.749 75.2867 240.549C75.4778 240.35 75.7247 240.25 76.0273 240.25C76.3458 240.25 76.6086 240.383 76.8156 240.649L87.9245 255.955V241.323C87.9245 241.007 88.02 240.749 88.2112 240.549C88.4023 240.35 88.6491 240.25 88.9518 240.25C89.2384 240.25 89.4773 240.35 89.6685 240.549C89.8755 240.749 89.979 241.007 89.979 241.323V258.677C89.979 258.993 89.8755 259.251 89.6685 259.451C89.4773 259.65 89.2384 259.75 88.9518 259.75C88.8084 259.75 88.6651 259.725 88.5217 259.675C88.3784 259.609 88.2589 259.509 88.1634 259.376L77.0545 244.07V258.677C77.0545 258.993 76.951 259.251 76.744 259.451C76.5528 259.65 76.3139 259.75 76.0273 259.75Z" fill="white"/>
<path d="M287.374 79.1996C287.093 79.3135 286.959 79.6348 287.076 79.9144C287.089 79.9453 287.099 79.9773 287.106 80.01L287.727 82.8992L289.621 91.9243L292.006 99.5897C292.939 102.588 294.153 105.492 295.631 108.263L298.67 113.962L303.502 120.587C303.647 120.787 303.761 121.007 303.839 121.241C304.149 122.17 303.866 123.193 303.122 123.829L303.043 123.897C302.934 123.99 302.818 124.074 302.695 124.147L301.761 124.706C301.105 125.099 300.478 125.539 299.887 126.026C298.658 127.039 297.12 128.312 296.987 128.444L290.673 134.741L288.144 137.377C286.757 138.823 285.672 140.531 284.951 142.4L284.504 143.559C284.13 144.528 283.939 145.558 283.939 146.596V147.68C283.939 148.28 283.799 148.873 283.53 149.409C283.115 150.237 282.416 150.887 281.561 151.243L280.932 151.504C280.554 151.661 280.153 151.76 279.745 151.797L279.414 151.827C278.539 151.907 277.67 151.629 277.002 151.059C276.718 150.816 276.478 150.526 276.292 150.202L274.889 147.754L271.943 142.926L266.166 132.02C266.09 131.878 265.977 131.759 265.839 131.676C265.39 131.407 264.806 131.587 264.586 132.062L263.735 133.901L261.631 137.469L257.493 143.865C257.447 143.937 257.379 143.992 257.299 144.022C257.134 144.083 257.03 144.246 257.042 144.421L257.353 148.853L257.863 151.329C258.075 152.501 258.508 154.93 258.548 155.263C258.588 155.596 258.682 159.898 258.724 162.006L258.671 164.379C258.617 166.751 258.733 169.123 259.016 171.479L259.243 173.359L259.836 180.053L260.158 181.755L260.288 182.841C260.368 183.504 260.375 184.174 260.309 184.839C260.209 185.854 260.279 186.879 260.515 187.871L261.21 190.78L261.727 192.499C261.801 192.746 261.794 193.009 261.706 193.251C261.535 193.725 261.085 194.04 260.581 194.04H255.429C255.217 194.04 255.006 193.996 254.812 193.909C254.264 193.665 253.911 193.122 253.911 192.522V192.103C253.911 191.222 253.841 190.343 253.704 189.473L253.213 186.372L252.721 181.794C252.628 180.933 252.412 180.09 252.077 179.291L251.576 178.092C251.202 177.197 251.108 176.209 251.307 175.26C251.442 174.617 251.443 173.953 251.31 173.31L251.001 171.809C250.574 170.596 250.28 169.339 250.126 168.062L249.855 165.808C249.789 165.258 249.769 164.705 249.794 164.152C249.846 163.014 249.703 161.874 249.372 160.784L249.232 160.323C248.958 159.42 248.784 158.49 248.714 157.549L248.477 154.355L248.068 152.445C248.017 152.207 247.946 151.974 247.854 151.749L246.821 149.202C246.555 148.548 245.82 148.221 245.157 148.462C244.92 148.548 244.714 148.699 244.561 148.899L242.048 152.189C241.637 152.726 241.318 153.328 241.104 153.969C240.764 154.985 240.697 156.072 240.907 157.122L241.061 157.891C241.165 158.408 241.313 158.914 241.505 159.405L241.723 159.966C242.364 161.607 242.728 163.344 242.801 165.105L242.901 167.483L242.69 174.409L243.532 183.854L243.953 186.582L244.306 190.806C244.351 191.343 244.286 191.883 244.115 192.393L243.786 193.378C243.625 193.86 243.26 194.247 242.788 194.435C242.584 194.516 242.367 194.558 242.148 194.558H237.9C237.329 194.558 236.781 194.331 236.377 193.928L236.22 193.772C235.916 193.469 235.504 193.298 235.075 193.298C234.824 193.298 234.576 193.357 234.351 193.469L233.43 193.928C232.6 194.342 231.685 194.558 230.757 194.558H222.653C221.914 194.558 221.246 194.118 220.954 193.438C220.854 193.208 220.803 192.959 220.803 192.708V191.377C220.803 190.85 220.952 190.333 221.232 189.886C221.631 189.249 222.269 188.799 223.003 188.637L223.75 188.471L224.916 188.26C225.68 188.121 226.455 188.051 227.232 188.051H228.237C229.028 188.051 229.813 187.918 230.56 187.657L231.672 187.269C232.921 186.833 233.915 185.871 234.391 184.636C234.591 184.119 234.693 183.569 234.693 183.015V181.729C234.693 181.187 234.655 180.646 234.578 180.11L234.062 176.508L233.22 172.73L230.99 161.983C230.794 161.034 230.502 160.108 230.119 159.218C229.663 158.155 229.335 157.041 229.145 155.901L228.8 153.84L228.249 151.861C227.917 150.67 227.783 149.433 227.852 148.198C227.923 146.931 228.206 145.685 228.69 144.512L229.432 142.716L231.115 137.679L232.799 133.062L233.288 131.882C234.642 128.62 236.337 125.51 238.346 122.605L239.534 120.888L244.374 113.542L247.11 108.279C247.246 108.019 247.47 107.816 247.743 107.707C248.135 107.551 248.418 107.204 248.494 106.789L248.745 105.41C248.777 105.235 248.822 105.062 248.878 104.893L249.024 104.457C249.287 103.669 249.359 102.83 249.232 102.009L249.138 101.402C249.05 100.832 249.125 100.248 249.352 99.7185C249.538 99.2855 249.821 98.9011 250.18 98.5948L250.228 98.5534C250.798 98.066 251.188 97.4013 251.336 96.6657L251.529 95.7022L251.908 93.2475C251.935 93.0694 251.907 92.8871 251.826 92.726C251.651 92.3764 251.263 92.1872 250.88 92.2637L250.647 92.3101C250.534 92.3326 250.425 92.3715 250.324 92.4255L247.32 94.0231C245.847 94.7927 242.859 96.3318 242.69 96.3318C242.522 96.3318 239.534 97.4512 238.06 98.0109L233.22 99.4801C231.26 99.899 229.266 100.142 227.262 100.207L223.75 100.32H220.163C219.749 100.32 219.337 100.274 218.933 100.185L218.288 100.042C217.866 99.9485 217.471 99.7597 217.133 99.49L216.874 99.2834C216.69 99.1368 216.472 99.036 216.242 98.99C215.802 98.9023 215.343 99.0206 215.002 99.312C214.677 99.59 214.49 99.9962 214.49 100.424V100.509C214.49 101.048 214.227 101.553 213.785 101.861L212.767 102.572C212.513 102.749 212.24 102.896 211.953 103.011L210.036 103.776C209.502 103.988 208.934 104.098 208.359 104.098H207.89C206.869 104.098 205.899 104.543 205.234 105.317C205.091 105.483 204.933 105.636 204.762 105.772L204.534 105.954C203.48 106.795 202.194 107.294 200.849 107.383L200.642 107.397C200.055 107.436 199.476 107.546 198.914 107.723C197.05 108.311 194.365 109.135 194.076 109.135C193.806 109.135 191.445 109.944 189.616 110.589C188.802 110.876 187.965 111.095 187.114 111.237L186.29 111.373C184.359 111.694 182.545 112.514 181.028 113.752L177.871 116.271L176.689 117.188C176.267 117.515 176.114 118.081 176.312 118.576C176.369 118.717 176.398 118.868 176.398 119.02V119.839C176.398 120.532 176.265 121.219 176.007 121.862L175.556 122.987L174.872 125.034C174.769 125.343 174.752 125.674 174.823 125.992L174.894 126.311C175.035 126.944 175.597 127.395 176.246 127.395C176.613 127.395 176.965 127.54 177.225 127.799L177.891 128.464C178.293 128.865 178.783 129.167 179.322 129.346L181.659 130.123L183.343 130.543L186.251 130.848C186.972 130.924 187.674 131.129 188.322 131.452L188.831 131.706C190.028 132.302 190.918 133.374 191.287 134.659C191.461 135.267 191.755 135.835 192.151 136.328L193.663 138.214C193.935 138.553 194.131 138.947 194.236 139.368C194.405 140.04 194.8 140.634 195.355 141.05L195.911 141.465C196.09 141.599 196.257 141.75 196.408 141.915C197.611 143.224 197.687 145.212 196.587 146.608L196.181 147.124L192.257 151.489C191.237 152.623 189.98 153.517 188.574 154.107L186.993 154.771C186.806 154.849 186.637 154.963 186.493 155.106L186.345 155.254C185.728 155.869 185.822 156.893 186.54 157.386C186.649 157.461 186.747 157.551 186.831 157.654L188.738 159.995C189.793 161.29 190.7 162.699 191.442 164.196L191.725 164.766L194.895 171.538L195.528 172.743C196.781 175.129 198.328 177.349 200.131 179.352L201.984 181.24L204.535 183.553C204.806 183.799 205.054 184.069 205.277 184.359C205.992 185.291 206.96 185.996 208.067 186.391L208.948 186.705L209.796 186.904C210.567 187.084 211.164 187.692 211.331 188.466C211.402 188.793 211.392 189.133 211.301 189.456L211.261 189.597C211.127 190.069 210.865 190.495 210.502 190.827L209.641 191.614C209.443 191.796 209.231 191.961 209.008 192.11C208.28 192.593 207.443 192.886 206.573 192.962L204.19 193.17C203.123 193.124 202.098 192.74 201.264 192.073L199.915 190.995L199.235 190.378C198.994 190.159 198.636 190.132 198.365 190.312C198.199 190.423 198.086 190.599 198.056 190.797L198.032 190.956C197.945 191.528 197.42 191.929 196.845 191.861L194.804 191.62C194.464 191.58 194.145 191.435 193.891 191.204C193.545 190.89 193.348 190.444 193.351 189.976L193.359 188.404C193.361 188.065 193.274 187.732 193.108 187.437C192.854 186.984 192.79 186.449 192.931 185.949L193.233 184.879C193.393 184.311 193.444 183.717 193.381 183.13L193.364 182.974C193.278 182.171 193.015 181.398 192.593 180.709L191.638 179.151C191.16 178.37 190.604 177.64 189.978 176.972L187.973 174.829L182.31 167.623C182.017 167.251 181.681 166.916 181.309 166.624L178.237 164.223C177.658 163.771 176.832 163.82 176.311 164.339L172.158 168.759L168.498 172.719C168.102 173.148 167.664 173.535 167.19 173.874L165.961 174.755C165.141 175.343 164.548 176.197 164.285 177.172C164.108 177.829 163.78 178.436 163.327 178.944L162.727 179.618L161.739 180.817C161.403 181.225 161.123 181.675 160.905 182.156C160.437 183.187 160.27 184.329 160.424 185.451L160.495 185.971C160.668 187.233 161.146 188.434 161.888 189.47L162.777 190.71C163.144 191.222 163.419 191.792 163.592 192.397L163.821 193.198C163.874 193.385 163.889 193.581 163.864 193.774L163.858 193.82C163.796 194.304 163.479 194.716 163.028 194.9C162.696 195.035 162.325 195.033 161.995 194.895L161.087 194.516C160.865 194.423 160.652 194.308 160.452 194.174L157.721 192.347C156.94 191.824 156.228 191.204 155.603 190.502L153.762 188.435C153.645 188.303 153.495 188.206 153.327 188.152L153.145 188.094C152.805 187.985 152.436 188.131 152.263 188.442C152.082 188.767 151.69 188.909 151.342 188.776L150.832 188.581C150.651 188.512 150.487 188.406 150.35 188.269L149.475 187.395L148.691 186.355C148.395 185.963 148.265 185.47 148.327 184.982C148.358 184.744 148.434 184.514 148.55 184.305L151.937 178.237C152.085 177.971 152.26 177.719 152.458 177.487L153.085 176.753C153.386 176.4 153.802 176.164 154.26 176.088C154.663 176.02 155.036 175.828 155.326 175.539L155.72 175.147C155.882 174.985 156.06 174.839 156.25 174.709L156.784 174.345C157.785 173.664 158.662 172.817 159.379 171.841L160.301 170.585L162.43 167.203C162.435 167.196 162.431 167.186 162.422 167.184L161.915 167.071C161.89 167.066 161.864 167.063 161.838 167.063H159.366C158.213 167.063 157.176 166.362 156.747 165.291C156.66 165.074 156.6 164.847 156.569 164.615L156.29 162.529C156.229 162.071 155.993 161.655 155.632 161.367C155.315 161.114 154.922 160.976 154.516 160.976H153.284C153.12 160.976 152.957 160.991 152.796 161.02C151.574 161.242 150.654 162.258 150.555 163.496L150.392 165.529C150.335 166.232 149.959 166.871 149.371 167.262C149.152 167.408 148.909 167.515 148.653 167.579L148.206 167.691C147.643 167.831 147.061 167.872 146.485 167.811L143.685 167.517C143.468 167.494 143.255 167.439 143.055 167.353C142.331 167.044 141.83 166.37 141.743 165.588L141.674 164.964V163.998C141.674 163.604 141.354 163.285 140.961 163.285C140.875 163.285 140.791 163.27 140.711 163.24L139.148 162.655L138.499 162.47C137.967 162.319 137.506 161.983 137.199 161.524C136.96 161.166 136.626 160.881 136.235 160.701L134.264 159.794C134.153 159.743 134.048 159.68 133.95 159.607L133.776 159.477C133.047 158.931 132.006 159.135 131.537 159.916L131.489 159.994C131.276 160.349 130.911 160.586 130.5 160.638C129.891 160.714 129.308 160.37 129.08 159.801L128.84 159.203C128.7 158.852 128.47 158.543 128.174 158.307C127.786 157.998 127.303 157.828 126.806 157.828H123.091C122.993 157.828 122.895 157.816 122.8 157.792L122.391 157.69C122.213 157.646 122.074 157.507 122.029 157.329C121.956 157.038 121.643 156.878 121.364 156.989L121.081 157.102C120.924 157.164 120.751 157.173 120.589 157.127L118.243 156.459C118.056 156.405 117.956 156.201 118.028 156.021C118.136 155.753 117.869 155.483 117.596 155.578C117.352 155.663 117.133 155.729 117.051 155.729C116.893 155.729 115.737 155.114 115.072 154.749C114.988 154.703 114.901 154.663 114.811 154.629L114.063 154.349C113.602 154.177 113.334 153.695 113.431 153.212C113.459 153.073 113.516 152.941 113.599 152.825L114.388 151.723C114.479 151.596 114.545 151.454 114.583 151.303C114.679 150.919 114.586 150.512 114.332 150.208L113.988 149.797C113.787 149.557 113.539 149.36 113.258 149.221L112.859 149.021C112.333 148.759 112 148.221 112 147.633C112 147.435 112.038 147.239 112.112 147.055C112.305 146.574 112.723 146.217 113.229 146.105L113.991 145.936C114.192 145.892 114.355 145.745 114.42 145.55C114.485 145.354 114.648 145.208 114.849 145.163L116.183 144.868C116.34 144.833 116.495 144.785 116.645 144.725L117.472 144.395L117.681 144.291C118.1 144.082 118.55 143.944 119.015 143.882L120.882 143.634C121.245 143.586 121.555 143.345 121.691 143.005C121.816 142.693 122.087 142.463 122.415 142.39L123.785 142.087L127.573 141.667L128.452 141.472C129.086 141.332 129.605 140.881 129.833 140.274L129.947 139.972C130.044 139.713 130.237 139.499 130.485 139.375C130.774 139.231 131.112 139.221 131.408 139.348L131.843 139.534C132.216 139.693 132.626 139.743 133.026 139.676L133.046 139.673C133.458 139.604 133.841 139.42 134.152 139.141L134.85 138.515C135.463 137.965 136.192 137.562 136.984 137.336L138.118 137.013C138.522 136.898 138.91 136.73 139.271 136.514C139.609 136.312 139.92 136.069 140.199 135.792L141.884 134.111L143.778 132.642L144.948 131.864C145.424 131.548 145.969 131.353 146.537 131.296L147.009 131.249C147.506 131.2 147.97 130.98 148.323 130.628C148.518 130.433 148.675 130.203 148.781 129.949C148.993 129.436 149.25 128.785 149.25 128.654C149.25 128.486 148.969 127.185 148.829 126.555C148.549 124.599 148.408 122.625 148.408 120.648V118.618C148.408 117.056 148.267 115.498 147.987 113.962L147.55 111.49C147.477 111.079 147.25 110.712 146.915 110.462C146.771 110.355 146.645 110.224 146.543 110.076L146.092 109.419C145.103 107.978 143.57 107.001 141.845 106.715L141.301 106.624L139.041 105.924C138.028 105.61 137.081 105.116 136.244 104.465C135.402 103.81 134.687 103.008 134.132 102.097L133.967 101.826C133.751 101.471 133.506 101.134 133.234 100.819C132.776 100.289 132.246 99.825 131.66 99.4408L131.035 99.031C130.343 98.5772 129.765 97.9702 129.345 97.2569C128.979 96.6371 128.494 96.0965 127.917 95.667L127.237 95.1603L124.995 93.2077L122.676 90.7675C122.204 90.2704 121.594 89.9263 120.924 89.7795L120.632 89.7577C120.083 89.7169 119.605 89.3698 119.395 88.861C119.289 88.6012 119.259 88.3161 119.311 88.04L119.326 87.9601C119.423 87.4432 119.28 86.9101 118.936 86.512L118.656 86.1878L117.773 84.9018C117.644 84.7139 117.531 84.5155 117.435 84.3087C117.11 83.6057 116.992 82.8244 117.095 82.0565L117.205 81.2402C117.251 80.8988 117.271 80.5543 117.265 80.2099L117.194 75.8102L117.096 75.0246C117.045 74.6071 117.293 74.2106 117.691 74.0745L117.816 74.0317C117.983 73.9744 118.167 73.9936 118.319 74.0841C118.72 74.3223 119.227 74.0364 119.231 73.5707L119.237 72.7781C119.239 72.532 119.347 72.2987 119.534 72.1383L119.674 72.0179C119.888 71.8344 120.199 71.8195 120.429 71.9816C120.623 72.1182 120.878 72.1311 121.085 72.0149L121.283 71.9032C121.526 71.7665 121.826 71.7817 122.054 71.9423C122.262 72.0889 122.378 72.334 122.359 72.5878L122.013 77.2106L121.508 80.2368C121.485 80.3747 121.479 80.515 121.492 80.6542L121.51 80.8555C121.581 81.6268 122.254 82.201 123.027 82.149C123.474 82.1188 123.909 82.3006 124.202 82.6398L125.247 83.8506C127.051 85.9398 129.336 87.5589 131.905 88.5686L132.198 88.6836C133.249 89.2579 135.379 90.4383 135.489 90.5655C135.599 90.6928 140.564 93.87 143.033 95.4427L144.768 96.7544C145.207 97.0865 145.713 97.3194 146.25 97.4373C147.055 97.6137 147.781 98.0459 148.319 98.6692L149.55 100.095C149.66 100.222 151.917 100.367 152.617 100.32H153.172C154.059 100.32 154.94 100.461 155.783 100.739L156.818 101.081C156.975 101.133 157.139 101.159 157.303 101.159C157.543 101.159 157.78 101.104 157.994 100.997L158.067 100.96C158.61 100.69 158.99 100.176 159.09 99.5777L159.112 99.4466C159.131 99.3293 159.141 99.2105 159.141 99.0915V98.2233C159.141 97.9432 159.102 97.6645 159.025 97.3952L158.929 97.0607C158.794 96.5902 158.496 96.1831 158.089 95.9121L157.038 95.1782C156.348 94.6971 155.804 94.0373 155.461 93.2697C155.25 92.7959 155.12 92.29 155.077 91.7731L154.971 90.4978C154.946 90.1964 154.844 89.9064 154.676 89.655C154.48 89.3615 154.375 89.0165 154.375 88.6635V87.5943C154.375 87.3425 154.393 87.091 154.429 86.8418L154.595 85.6819C154.78 84.3872 155.082 83.1118 155.497 81.8712L156.369 79.2611L156.845 77.364C157.191 75.9823 157.366 74.5633 157.366 73.1388V70.7512C157.366 70.4601 157.319 70.1709 157.227 69.8949L156.443 67.5481C156.402 67.4269 156.468 67.2959 156.589 67.2555C156.76 67.1988 156.808 66.9641 156.742 66.7968C156.729 66.7631 156.717 66.7283 156.708 66.6924L156.369 65.3395L156.056 63.4628C156.008 63.1757 155.607 63.1442 155.515 63.4203C155.449 63.617 155.2 63.676 155.053 63.5295L154.579 63.0569C154.449 62.9267 154.375 62.7499 154.375 62.5656V62.3896C154.375 61.8675 153.885 61.4843 153.378 61.6106C152.872 61.7369 152.381 61.3537 152.381 60.8316V60.0973C152.381 59.9583 152.46 59.8312 152.584 59.7692C152.877 59.6233 152.846 59.1965 152.536 59.0933L151.925 58.8902C151.897 58.8808 151.869 58.8692 151.842 58.8559C151.376 58.6234 151.267 57.9982 151.636 57.6303L151.785 57.4813C151.85 57.4172 151.904 57.3425 151.944 57.2614C152.174 56.8039 151.946 56.2455 151.46 56.084L151.427 56.0729C151.104 55.9654 150.885 55.6631 150.885 55.3224C150.885 55.0577 151.018 54.8104 151.238 54.6639L152.275 53.9745C152.346 53.9277 152.411 53.8741 152.471 53.8144L153.026 53.2613C153.22 53.067 153.536 53.067 153.731 53.2613C153.824 53.3546 153.951 53.407 154.083 53.407H155.015C155.25 53.407 155.482 53.3524 155.692 53.2475L156.171 53.0088C156.296 52.9464 156.443 52.9464 156.568 53.0088L156.915 53.1817C157.1 53.2744 157.1 53.5396 156.915 53.6322C156.714 53.7324 156.735 54.0256 156.948 54.0964L157.818 54.3858C157.849 54.3961 157.881 54.4041 157.914 54.4094L158.768 54.5514C159.424 54.6606 159.555 55.5476 158.959 55.8446C158.895 55.8765 158.836 55.9187 158.785 55.9693C158.401 56.3531 158.611 57.0113 159.147 57.1004L159.617 57.1785C160.135 57.2646 160.339 57.9006 159.967 58.2715L159.931 58.3075C159.884 58.3544 159.826 58.3898 159.763 58.4107C159.356 58.546 159.379 59.1291 159.795 59.2329L160.296 59.3579C160.337 59.3681 160.377 59.3827 160.414 59.4015L161.04 59.7137C161.244 59.8155 161.41 59.9806 161.512 60.1843L161.537 60.2338C161.726 60.6104 161.652 61.0657 161.353 61.3633L161.099 61.617C160.954 61.7617 160.733 61.7976 160.549 61.7061C160.232 61.5479 159.859 61.7786 159.859 62.1331V62.3564C159.859 62.9075 159.192 63.1826 158.802 62.7935C158.56 62.5522 158.168 62.5517 157.926 62.793L157.865 62.8536C157.559 63.1582 157.453 63.6094 157.59 64.0185L157.865 64.8423L158.232 66.3051C158.271 66.4619 158.445 66.5421 158.59 66.4699C158.731 66.3994 158.902 66.4746 158.946 66.6266L160.08 70.5874C160.589 72.363 161.542 73.9794 162.85 75.2836L166.34 79.2611L168.334 81.2499L170.086 82.648C170.554 83.0212 170.827 83.5872 170.827 84.1857C170.827 84.5547 170.936 84.9132 171.108 85.2398C171.226 85.4644 171.332 85.695 171.427 85.9307L171.76 86.7613C171.905 87.1242 172.017 87.4998 172.094 87.8832L172.099 87.9072C172.296 88.8919 172.255 89.9095 171.979 90.8749L171.837 91.4406C171.667 92.1188 171.908 92.8338 172.455 93.2698C172.558 93.352 172.652 93.4454 172.734 93.5482L172.759 93.579C173.193 94.1208 173.338 94.8399 173.147 95.5076L173.129 95.5712C173.064 95.7971 172.964 96.0116 172.834 96.207L172.61 96.5418L171.966 97.4407C171.701 97.8115 171.558 98.2562 171.558 98.7124V98.8621C171.558 99.2621 171.421 99.6502 171.171 99.9623L171.131 100.012C170.865 100.343 170.479 100.556 170.057 100.603L169.511 100.663C169.105 100.708 168.781 101.022 168.724 101.426C168.659 101.873 168.939 102.298 169.375 102.416L170.683 102.772C170.845 102.816 171.011 102.843 171.178 102.853L173.745 103.004C174.212 103.031 174.655 102.797 174.896 102.397C175.05 102.14 175.292 101.947 175.576 101.852L176.055 101.693C176.682 101.485 177.363 101.52 177.965 101.793L179.344 102.419C180.735 102.973 182.218 103.258 183.715 103.258H183.757C184.601 103.258 185.443 103.169 186.268 102.993L187.19 102.796C187.711 102.684 188.22 102.523 188.709 102.314C189.199 102.104 189.708 101.943 190.229 101.831L191.472 101.566C192.081 101.436 192.663 101.201 193.191 100.871C193.776 100.507 194.425 100.258 195.103 100.139L197.005 99.8042C197.436 99.7284 197.857 99.6031 198.259 99.4311C198.834 99.1856 199.445 99.036 200.067 98.9882L202.857 98.7742C204.009 98.6858 205.137 98.3965 206.19 97.9193L206.384 97.8311C206.737 97.6714 207.101 97.5402 207.474 97.4387L209.082 97.0013C209.178 96.9752 209.279 96.9732 209.376 96.9955L209.895 97.115C209.979 97.1343 210.061 97.0747 210.068 96.9887C210.07 96.9707 210.074 96.9532 210.083 96.937L210.293 96.5171C210.424 96.2556 210.51 95.9736 210.546 95.6833L210.608 95.1872C210.67 94.6946 210.815 94.2161 211.038 93.7722L211.15 93.5482C211.271 93.3065 211.356 93.0479 211.4 92.7812L211.479 92.3086C211.521 92.0587 211.64 91.828 211.819 91.6491C212.047 91.4221 212.355 91.2946 212.677 91.2946H213.929C214.162 91.2946 214.395 91.2754 214.625 91.2372L215.921 91.0217C216.505 90.9247 217.102 90.9406 217.679 91.0687C218.351 91.2174 219.046 91.2146 219.716 91.0604L220.686 90.8372C221.184 90.7226 221.67 90.5608 222.137 90.3538L222.517 90.1853C223.055 89.9469 223.627 89.7971 224.213 89.7414L227.383 89.4403C227.605 89.4192 227.794 89.2693 227.864 89.0579C227.923 88.8815 228.066 88.7455 228.245 88.6945L229.138 88.44C229.333 88.3844 229.52 88.3034 229.694 88.1992L230.484 87.7266L230.727 87.6053C231.398 87.271 232.137 87.0969 232.886 87.0969C233.523 87.0969 234.154 86.9711 234.743 86.7265L235.332 86.4815C236.025 86.1936 236.674 85.81 237.261 85.3421L239.534 83.5289L240.131 82.9329C241.834 81.2343 243.394 79.3978 244.795 77.4422L246.899 74.9236L247.552 74.2722C248.649 73.1781 249.952 72.3119 251.385 71.7233C252.319 71.3398 253.299 71.0783 254.299 70.9453L255.949 70.7259L259.109 70.3757C259.524 70.3297 259.928 70.2107 260.302 70.0243L260.615 69.8684C260.868 69.742 261.091 69.562 261.269 69.341L261.435 69.1333C261.693 68.8125 261.795 68.3941 261.714 67.9908L261.68 67.8243C261.648 67.6635 261.569 67.5159 261.453 67.4C261.297 67.245 261.087 67.1579 260.867 67.1579H260.648C260.331 67.1579 260.024 67.0469 259.78 66.8442L259.519 66.6274C259.115 66.2916 258.839 65.8275 258.735 65.3124L258.731 65.2892C258.7 65.1361 258.685 64.9804 258.685 64.8243V64.1612C258.685 63.642 258.628 63.1243 258.515 62.6174L258.415 62.1711C258.315 61.7207 258.142 61.2894 257.904 60.894L257.769 60.6687C257.678 60.5179 257.569 60.3787 257.445 60.2544L256.992 59.8027C256.736 59.5481 256.634 59.178 256.721 58.8283C256.767 58.6479 256.86 58.4833 256.992 58.352L257.285 58.0595C257.648 57.6973 257.892 57.2328 257.984 56.7282L258.169 55.7121C258.232 55.3677 258.264 55.0184 258.264 54.6684V53.6259C258.264 53.2735 258.302 52.9221 258.379 52.578L258.443 52.2897C258.601 51.5824 258.957 50.9348 259.47 50.4232C259.648 50.2463 259.842 50.0874 260.05 49.9488L260.248 49.8172C260.742 49.4887 261.153 49.0497 261.448 48.5349L261.458 48.5169C261.711 48.076 262.051 47.6915 262.458 47.3871C263.148 46.8712 263.995 46.6105 264.856 46.6495L266.988 46.7462C267.763 46.7813 268.531 46.9095 269.276 47.1278L269.904 47.3121C271.114 47.667 272.253 48.2292 273.271 48.9736L273.438 49.0959C274.398 49.7976 275.221 50.6684 275.868 51.6655C276.745 53.0177 277.275 54.5658 277.409 56.172L277.415 56.2439L277.227 59.6216C277.212 59.888 277.177 60.153 277.122 60.4142L276.17 64.9713C276.16 65.0213 276.189 65.0712 276.237 65.0873C276.258 65.0942 276.28 65.0942 276.301 65.0872L278.661 64.2927C279.506 64.008 280.395 63.8756 281.287 63.9016L283.721 63.9725C285.665 64.0292 287.607 63.8175 289.494 63.3435L290.988 62.9678C291.755 62.7752 292.497 62.4967 293.201 62.1378C293.78 61.8428 294.33 61.4949 294.844 61.0985L295.204 60.8214C296.2 60.0535 297.287 59.4105 298.439 58.9068L299.217 58.567L301.623 57.6392C303.198 57.0321 304.633 56.1132 305.844 54.9375C306.57 54.2324 307.378 53.6179 308.252 53.1074L309.93 52.1271C311.827 51.0192 313.588 49.6959 315.181 48.1833L316.357 47.0663C316.785 46.6603 317.179 46.2206 317.536 45.7517L317.915 45.2549C318.738 44.1745 319.29 42.9123 319.525 41.5743L319.531 41.5505C319.872 40.3178 320.591 39.2227 321.585 38.4185L321.774 38.2661C322.109 37.9951 322.482 37.774 322.881 37.6098L323.937 37.1748C324.654 36.8793 325.472 36.9609 326.117 37.3925C326.578 37.7017 326.914 38.1659 327.063 38.7012L327.871 41.6004L327.953 42.2C328.121 43.4267 327.832 44.6722 327.14 45.6993C326.765 46.257 326.282 46.7341 325.72 47.1024L322.945 48.9197C319.965 51.1059 317.385 53.7918 315.321 56.8584L315.039 57.2775L309.943 62.9664L296.371 75.0667C295.708 75.658 294.948 76.1309 294.124 76.4646L287.374 79.1996Z" fill="white"/>
</svg>
